<svg xmlns="http://www.w3.org/2000/svg" xmlns:xlink="http://www.w3.org/1999/xlink" fill="none" version="1.1" width="16" height="15.111328125" viewBox="0 0 16 15.111328125"><g><g style="opacity:0;"><path d="M0 0C0 0 0 0 0 0L16 0C16 0 16 0 16 0L16 15.111111640930176C16 15.111111640930176 16 15.111111640930176 16 15.111111640930176L0 15.111111640930176C0 15.111111640930176 0 15.111111640930176 0 15.111111640930176Z" fill="#D8D8D8" fill-opacity="1"/></g><g><path d="M7.1426,2.731946166976929L7.14258,2.749128166976929L7.14258,6.746307166976929L2.809524,6.746307166976929C2.3624359999999998,6.746307166976929,2,7.108747166976928,2,7.555837166976929C2,8.002917166976928,2.3624359999999998,8.365357166976928,2.809524,8.365357166976928L7.14258,8.365357166976928L7.14258,12.36198716697693L7.1426,12.379187166976928C7.14599,12.843387166976928,7.52145,13.218787166976929,7.98564,13.222187166976928L7.99662,13.222187166976928L8.00282,13.222187166976928L8.0138,13.222187166976928C8.478,13.218787166976929,8.853449999999999,12.843287166976928,8.85684,12.379187166976928L8.856860000000001,12.36198716697693L8.856860000000001,8.365357166976928L13.1905,8.365357166976928C13.6376,8.365357166976928,14,8.002917166976928,14,7.555837166976929C14,7.108747166976928,13.6376,6.746307166976929,13.1905,6.746307166976929L8.856860000000001,6.746307166976929L8.856860000000001,2.749128166976929L8.85684,2.731946166976929C8.853449999999999,2.267758166976929,8.47799,1.8922962569769286,8.0138,1.8889097655769287L8.00282,1.8888874422329287L7.99662,1.8888874422339288L7.98564,1.8889097655769287C7.52145,1.8922961869769288,7.14599,2.2677601669769287,7.1426,2.731946166976929Z" fill-rule="evenodd" fill="#7B8FA2" fill-opacity="1"/></g></g></svg>